<svg style="object-fit:cover" id="my-svg" version="1" baseProfile="full" width="100%" height="100%" viewBox="0 0 1366 661" xmlns="http://www.w3.org/2000/svg"><rect width="1366" height="661" fill="#ffffff"/><path transform="scale(1, 1)" d="M 0,661 V 0,361 C 99.9404761904762,342.75 199.8809523809524,324.5 327,323 C 454.1190476190476,321.5 608.4166666666666,336.75 741,315 C 873.5833333333334,293.25 984.452380952381,234.49999999999997 1085,236 C 1185.547619047619,237.50000000000003 1275.7738095238096,299.25 1366,361 C 1366,361 1366,661 1366,661 Z" stroke="none" stroke-width="0" fill="#60fbf890" class="transition-all duration-300 ease-in-out delay-150" style="transform-origin: center center;"/><path transform="scale(1, 1)" d="M 0,661 V 0,541 C 103.86904761904765,493.2142857142857 207.7380952380953,445.42857142857144 326,474 C 444.2619047619047,502.57142857142856 576.9166666666666,607.5 689,597 C 801.0833333333334,586.5 892.5952380952381,460.5714285714286 1002,432 C 1111.404761904762,403.4285714285714 1238.702380952381,472.21428571428567 1366,541 C 1366,541 1366,661 1366,661 Z" stroke="none" stroke-width="0" fill="#60fbf8ff" class="transition-all duration-300 ease-in-out delay-150" style="transform-origin: center center;"/></svg>